<svg xmlns="http://www.w3.org/2000/svg" width="99.855" height="28.093" viewBox="0 0 99.855 28.093">
  <g id="Group_32" data-name="Group 32" transform="translate(-8.15 -44.032)">
    <g id="Group_27" data-name="Group 27" transform="translate(8.15 44.032)">
      <path id="Path_71" data-name="Path 71" d="M54.514,79.144H46.366L51.459,52h8.149ZM39.512,52,31.744,70.671l-.919-4.02h0l-2.742-12.2S27.752,52,24.219,52H11.377l-.151.46a33.363,33.363,0,0,1,8.523,3.1l7.079,23.579h8.49L48.281,52H39.512ZM103.6,79.144h7.482L104.558,52h-6.55c-3.025,0-3.761,2.023-3.761,2.023L82.1,79.144h8.494l1.7-4.031h10.358Zm-8.966-9.6,4.281-10.156,2.408,10.156ZM82.732,58.53,83.895,52.7a26.667,26.667,0,0,0-7.328-1.183c-4.043,0-13.646,1.533-13.646,8.985,0,7.011,11.27,7.1,11.27,10.781s-10.109,3.023-13.445.7l-1.211,6.094a25.8,25.8,0,0,0,9.2,1.533c5.56,0,13.949-2.5,13.949-9.292,0-7.056-11.371-7.713-11.371-10.781s7.936-2.674,11.423-1.008Z" transform="translate(-11.226 -51.519)"/>
    </g>
    <path id="Path_72" data-name="Path 72" d="M28.222,66.835l-2.378-12.2s-.287-2.444-3.352-2.444H11.357l-.131.46a27.377,27.377,0,0,1,10.487,5.265A21.163,21.163,0,0,1,28.222,66.835Z" transform="translate(-3.076 -7.684)" fill="#c1c1c1"/>
  </g>
</svg>
