<svg id="Group_24" data-name="Group 24" xmlns="http://www.w3.org/2000/svg" width="210" height="210" viewBox="0 0 210 210">
  <path id="Path" d="M0,0H210V210H0Z"/>
  <path id="Shape" d="M69.565,77.894h0l16.018-9.28c4.217,6.89,9.7,11.952,19.393,11.952,8.152,0,13.35-4.078,13.35-9.7,0-6.749-5.34-9.14-14.333-13.075l-4.918-2.111C84.883,49.633,75.468,42.041,75.468,26.012,75.468,11.248,86.71,0,104.276,0c12.506,0,21.5,4.36,27.964,15.748l-15.318,9.842c-3.373-6.045-7.025-8.436-12.647-8.436-5.762,0-9.416,3.656-9.416,8.436,0,5.9,3.654,8.3,12.085,11.952l4.918,2.109C128.585,46.823,138,54.133,138,70.583,138,88.3,124.088,98,105.4,98,87.131,98,75.326,89.283,69.565,77.894ZM0,80v0l16.02-9.7c3.091,5.483,5.9,10.122,12.646,10.122,6.465,0,10.541-2.53,10.541-12.371V1.126H58.881v67.2C58.881,88.717,46.937,98,29.51,98,13.773,98,4.638,89.842,0,80Z" transform="translate(55 95)" fill="#fff"/>
</svg>
