<svg xmlns="http://www.w3.org/2000/svg" width="798.25" height="75.669" viewBox="0 0 798.25 75.669">
  <g id="Group_31" data-name="Group 31" transform="translate(-183.75 -125.167)">
    <path id="CMS" d="M41.25,2.333c18.417,0,36.917-8,38.5-33.917h-26c-1.25,7-5.667,10.333-12.5,10.333-7,0-12.75-5.083-12.75-13.75s5.75-13.75,12.75-13.75c6.833,0,11.25,3.25,12.5,10.083h26c-1.583-25.75-20.25-33.667-38.5-33.667-24.167,0-40,14.583-40,37.333C1.25-12.333,17.083,2.333,41.25,2.333ZM88.5,0h26.083V-23.583h2.083L121.25,0h20l4.583-23.583h2.083V0H174V-70H139.667L132.25-36.25h-2L122.833-70H88.5ZM219,2.333c25.417.167,37.583-7.25,37.583-23.417,0-20.75-20.917-19.917-35.167-22.25L214.083-44.5c-4.083-.5-3.917-2.75-3.917-3.25,0-1.667,1.917-3.417,8.417-3.417,7.667,0,10.917,2.083,11.583,5.583h24.417c.75-21.75-14.083-26.75-35.417-26.75-24,0-35.333,8.917-35.333,23.167,0,19.667,17.75,20,31,22l9.25,1.417c5.833.667,5.25,3,5.25,3.5,0,1.75-2.833,3.5-10.333,3.333-9-.083-12.083-2.167-12.083-5.667H182.333C181.417-5.25,192.917,2.25,219,2.333Z" transform="translate(183 198)" fill="rgba(255,255,255,0.5)" stroke="#000" stroke-width="1" opacity="0.25"/>
    <path id="API" d="M59.75,0H88L63.167-70H24.833L0,0H28.25l2.333-7.583H57.5ZM36.667-27.667l5.083-16.75h4.583l5.083,16.75ZM95.5,0h27.417V-13.083H137.5c19.25,0,31.333-8.25,31.333-28.5S156.75-70,137.333-70H95.5Zm27.417-35.75V-47.333h12c3.667,0,6.25,1.917,6.25,5.75s-2.583,5.833-6.417,5.833ZM178,0h27.417V-70H178Zm75.667,0h37L294-26.667h2.25L299.583,0h37L348.75-70H320.917l-5.083,40.667H313.5L305.75-70H284.5l-7.75,40.667h-2.333L269.333-70H241.5ZM357.75,0h65.833V-21.75H385.167v-4.583h36.917v-17.25H385.167V-48.25h38.417V-70H357.75ZM499.333-35.667v-1.5c4.25-2.667,8.583-5.583,8.583-13.833,0-9-5.25-19-27.167-19H433.583V0h45.333C501.667,0,509.5-8.75,509.5-19.75,509.5-27.5,505.583-32,499.333-35.667ZM477.583-49.25c3.917,0,4.167,2.583,4.167,3.667,0,.75-.25,3.5-4.167,3.5H461V-49.25Zm.25,28.417H461v-7.25h16.833c3.833,0,4,2.917,4,3.583C481.833-23.917,481.667-20.833,477.833-20.833Z" transform="translate(472 198)" fill="rgba(255,255,255,0.5)" stroke="#000" stroke-width="1" opacity="0.25"/>
  </g>
</svg>
