<svg xmlns="http://www.w3.org/2000/svg" width="3316.5" height="75.669" viewBox="0 0 3316.5 75.669">
  <g id="Group_30" data-name="Group 30" transform="translate(-7 -137.167)">
    <path id="mobile_APP" data-name="mobile APP" d="M2.5,0H28.583V-23.583h2.083L35.25,0h20l4.583-23.583h2.083V0H88V-70H53.667L46.25-36.25h-2L36.833-70H2.5ZM137.25,2.333c24.833,0,40.417-14.667,40.417-37.333,0-22.75-15.583-37.333-40.417-37.333-24.917,0-40.5,14.583-40.5,37.333C96.75-12.333,112.333,2.333,137.25,2.333Zm0-23.583c-7,0-13.25-4.5-13.25-13.75,0-9.333,6.25-13.75,13.25-13.75,6.917,0,13.25,4.417,13.25,13.75C150.5-25.75,144.167-21.25,137.25-21.25ZM252.167-35.667v-1.5c4.25-2.667,8.583-5.583,8.583-13.833,0-9-5.25-19-27.167-19H186.417V0H231.75c22.75,0,30.583-8.75,30.583-19.75C262.333-27.5,258.417-32,252.167-35.667ZM230.417-49.25c3.917,0,4.167,2.583,4.167,3.667,0,.75-.25,3.5-4.167,3.5H213.833V-49.25Zm.25,28.417H213.833v-7.25h16.833c3.833,0,4,2.917,4,3.583C234.667-23.917,234.5-20.833,230.667-20.833ZM271.5,0h27.417V-70H271.5Zm37.417,0h62.75V-22.833H336.333V-70H308.917Zm73.167,0h65.833V-21.75H409.5v-4.583h36.917v-17.25H409.5V-48.25h38.417V-70H382.083ZM542.25,0H570.5L545.667-70H507.333L482.5,0h28.25l2.333-7.583H540ZM519.167-27.667l5.083-16.75h4.583l5.083,16.75ZM578,0h27.417V-13.083H620c19.25,0,31.333-8.25,31.333-28.5S639.25-70,619.833-70H578Zm27.417-35.75V-47.333h12c3.667,0,6.25,1.917,6.25,5.75s-2.583,5.833-6.417,5.833ZM660.5,0h27.417V-13.083H702.5c19.25,0,31.333-8.25,31.333-28.5S721.75-70,702.333-70H660.5Zm27.417-35.75V-47.333h12c3.667,0,6.25,1.917,6.25,5.75s-2.583,5.833-6.417,5.833Z" transform="translate(965 210)" fill="rgba(255,255,255,0.5)" stroke="#000" stroke-width="1" opacity="0.25"/>
    <path id="marketplace" d="M-917.5,0h26.083V-23.583h2.083L-884.75,0h20l4.583-23.583h2.083V0H-832V-70h-34.333l-7.417,33.75h-2L-883.167-70H-917.5Zm152.75,0h28.25l-24.833-70h-38.333L-824.5,0h28.25l2.333-7.583H-767Zm-23.083-27.667,5.083-16.75h4.583l5.083,16.75ZM-652.5,0l-11.833-22.417c5.25-4.167,9.083-10.667,9.083-19.75C-655.25-62-666.833-70-686.667-70H-729V0h27.417V-16.25H-687.5L-679.333,0Zm-49.083-47.333h12.833c4.167,0,6,2.167,6,5.417s-1.833,5.417-6,5.417h-12.833ZM-563,0l-28.5-38.833L-563.5-70h-30.25l-20.833,23.833h-1.667V-70h-27.333V0h27.333V-13.75l7.917-8.583h1.5L-590.75,0Zm6.417,0h65.833V-21.75h-38.417v-4.583h36.917v-17.25h-36.917V-48.25h38.417V-70h-65.833Zm151.75-70h-76.333v22.75h24.5V0h27.333V-47.25h24.5Zm9.583,70h27.417V-13.083h14.583c19.25,0,31.333-8.25,31.333-28.5S-334-70-353.417-70H-395.25Zm27.417-35.75V-47.333h12c3.667,0,6.25,1.917,6.25,5.75S-352.167-35.75-356-35.75ZM-312.75,0H-250V-22.833h-35.333V-70H-312.75Zm129.583,0h28.25L-179.75-70h-38.333L-242.917,0h28.25l2.333-7.583h26.917ZM-206.25-27.667l5.083-16.75h4.583l5.083,16.75Zm90.667,30c18.417,0,36.917-8,38.5-33.917h-26c-1.25,7-5.667,10.333-12.5,10.333-7,0-12.75-5.083-12.75-13.75s5.75-13.75,12.75-13.75c6.833,0,11.25,3.25,12.5,10.083h26c-1.583-25.75-20.25-33.667-38.5-33.667-24.167,0-40,14.583-40,37.333C-155.583-12.333-139.75,2.333-115.583,2.333ZM-68.333,0H-2.5V-21.75H-40.917v-4.583H-4v-17.25H-40.917V-48.25H-2.5V-70H-68.333Z" transform="translate(925 210)" fill="rgba(255,255,255,0.5)" stroke="#000" stroke-width="1" opacity="0.25"/>
    <path id="CMS" d="M41.25,2.333c18.417,0,36.917-8,38.5-33.917h-26c-1.25,7-5.667,10.333-12.5,10.333-7,0-12.75-5.083-12.75-13.75s5.75-13.75,12.75-13.75c6.833,0,11.25,3.25,12.5,10.083h26c-1.583-25.75-20.25-33.667-38.5-33.667-24.167,0-40,14.583-40,37.333C1.25-12.333,17.083,2.333,41.25,2.333ZM88.5,0h26.083V-23.583h2.083L121.25,0h20l4.583-23.583h2.083V0H174V-70H139.667L132.25-36.25h-2L122.833-70H88.5ZM219,2.333c25.417.167,37.583-7.25,37.583-23.417,0-20.75-20.917-19.917-35.167-22.25L214.083-44.5c-4.083-.5-3.917-2.75-3.917-3.25,0-1.667,1.917-3.417,8.417-3.417,7.667,0,10.917,2.083,11.583,5.583h24.417c.75-21.75-14.083-26.75-35.417-26.75-24,0-35.333,8.917-35.333,23.167,0,19.667,17.75,20,31,22l9.25,1.417c5.833.667,5.25,3,5.25,3.5,0,1.75-2.833,3.5-10.333,3.333-9-.083-12.083-2.167-12.083-5.667H182.333C181.417-5.25,192.917,2.25,219,2.333Z" transform="translate(1746 210)" fill="rgba(255,255,255,0.5)" stroke="#000" stroke-width="1" opacity="0.25"/>
    <path id="platform" d="M2.5,0H29.917V-13.083H44.5c19.25,0,31.333-8.25,31.333-28.5S63.75-70,44.333-70H2.5ZM29.917-35.75V-47.333h12c3.667,0,6.25,1.917,6.25,5.75S45.583-35.75,41.75-35.75ZM85,0h62.75V-22.833H112.417V-70H85ZM214.583,0h28.25L218-70H179.667L154.833,0h28.25l2.333-7.583h26.917ZM191.5-27.667l5.083-16.75h4.583l5.083,16.75ZM312.083-70H235.75v22.75h24.5V0h27.333V-47.25h24.5Zm9.583,70h27.417V-23h36.833V-42.417H349.083V-47.25h38.25V-70H321.667ZM435.083,2.333C459.917,2.333,475.5-12.333,475.5-35c0-22.75-15.583-37.333-40.417-37.333-24.917,0-40.5,14.583-40.5,37.333C394.583-12.333,410.167,2.333,435.083,2.333Zm0-23.583c-7,0-13.25-4.5-13.25-13.75,0-9.333,6.25-13.75,13.25-13.75,6.917,0,13.25,4.417,13.25,13.75C448.333-25.75,442-21.25,435.083-21.25ZM560.75,0,548.917-22.417c5.25-4.167,9.083-10.667,9.083-19.75C558-62,546.417-70,526.583-70H484.25V0h27.417V-16.25H525.75L533.917,0ZM511.667-47.333H524.5c4.167,0,6,2.167,6,5.417s-1.833,5.417-6,5.417H511.667ZM569.667,0H595.75V-23.583h2.083L602.417,0h20L627-23.583h2.083V0h26.083V-70H620.833l-7.417,33.75h-2L604-70H569.667Z" transform="translate(2049 210)" fill="rgba(255,255,255,0.5)" stroke="#000" stroke-width="1" opacity="0.25"/>
    <path id="android" d="M59.75,0H88L63.167-70H24.833L0,0H28.25l2.333-7.583H57.5ZM36.667-27.667l5.083-16.75h4.583l5.083,16.75ZM95.5,0h26.667V-31.667h2.5L142.417,0H173V-70H146.333v31.667h-2.417L126.833-70H95.5ZM220.167-70H183V0h37.167c29.417,0,39.167-14.833,39.167-35C259.333-55.333,249.583-70,220.167-70Zm.083,47.083H210.5v-24.25h9.75c5.917,0,11.583,2.417,11.583,12.167C231.833-25.417,226.167-22.917,220.25-22.917ZM345,0,333.167-22.417c5.25-4.167,9.083-10.667,9.083-19.75C342.25-62,330.667-70,310.833-70H268.5V0h27.417V-16.25H310L318.167,0ZM295.917-47.333H308.75c4.167,0,6,2.167,6,5.417s-1.833,5.417-6,5.417H295.917ZM391.083,2.333C415.917,2.333,431.5-12.333,431.5-35c0-22.75-15.583-37.333-40.417-37.333-24.917,0-40.5,14.583-40.5,37.333C350.583-12.333,366.167,2.333,391.083,2.333Zm0-23.583c-7,0-13.25-4.5-13.25-13.75,0-9.333,6.25-13.75,13.25-13.75,6.917,0,13.25,4.417,13.25,13.75C404.333-25.75,398-21.25,391.083-21.25ZM440.25,0h27.417V-70H440.25Zm74.583-70H477.667V0h37.167C544.25,0,554-14.833,554-35,554-55.333,544.25-70,514.833-70Zm.083,47.083h-9.75v-24.25h9.75c5.917,0,11.583,2.417,11.583,12.167C526.5-25.417,520.833-22.917,514.917-22.917Z" transform="translate(2769 210)" fill="rgba(255,255,255,0.5)" stroke="#000" stroke-width="1" opacity="0.25"/>
  </g>
</svg>
