<svg xmlns="http://www.w3.org/2000/svg" width="399.992" height="113.187" viewBox="0 0 399.992 113.187">
  <g id="nodejs" transform="translate(0 0)">
    <g id="Group" transform="translate(335.165 39.56)">
      <path id="Path" d="M32.369,0a5.6,5.6,0,0,0-2.787.683L2.788,16.176A5.656,5.656,0,0,0,0,21.076v30.93a5.658,5.658,0,0,0,2.788,4.9l7,4.045c3.4,1.678,4.653,1.651,6.2,1.651,5.033,0,7.908-3.058,7.908-8.373V23.7a.765.765,0,0,0-.8-.74H19.741a.761.761,0,0,0-.8.74V54.228c0,2.355-2.451,4.725-6.428,2.734L5.234,52.69a.8.8,0,0,1-.455-.683V21.075a.9.9,0,0,1,.455-.74L31.972,4.9a.788.788,0,0,1,.8,0L59.506,20.336a.909.909,0,0,1,.455.741v30.93a.86.86,0,0,1-.4.74l-26.8,15.436a.823.823,0,0,1-.8,0l-6.884-4.1a.715.715,0,0,0-.682,0,17.713,17.713,0,0,1-4.04,1.822c-.439.154-1.105.392.228,1.14l8.988,5.3a5.616,5.616,0,0,0,5.575,0l26.8-15.437a5.665,5.665,0,0,0,2.787-4.9V21.076a5.657,5.657,0,0,0-2.787-4.9L35.157.685A5.571,5.571,0,0,0,32.37,0Z" transform="translate(0.088 0.484)" fill="#7f7f7f"/>
      <path id="Path-2" data-name="Path" d="M13.084,0C5.454,0,.91,3.251.91,8.659c0,5.865,4.51,7.477,11.833,8.2,8.761.859,9.443,2.147,9.443,3.874,0,2.995-2.385,4.272-8.021,4.272-7.082,0-8.638-1.77-9.159-5.3a.772.772,0,0,0-.74-.684H.8a.813.813,0,0,0-.8.8c0,4.515,2.453,9.854,14.166,9.854,8.478,0,13.369-3.332,13.369-9.171,0-5.787-3.95-7.341-12.175-8.43-8.31-1.1-9.1-1.64-9.1-3.589,0-1.609.672-3.76,6.827-3.76,5.5,0,7.53,1.188,8.363,4.9a.778.778,0,0,0,.739.626h3.471a.84.84,0,0,0,.568-.285.747.747,0,0,0,.228-.569C25.916,3.007,21.659,0,13.084,0Z" transform="translate(26.541 22.585)" fill="#7f7f7f"/>
    </g>
    <path id="Shape" d="M198.383,112.731,170.26,96.482a3.379,3.379,0,0,1-1.69-2.934v-32.5a3.468,3.468,0,0,1,1.69-2.991L198.383,41.81a3.369,3.369,0,0,1,3.381,0l7.045,4.062a1.174,1.174,0,0,0,1.184,0,1.143,1.143,0,0,0,.563-1.015V1.693A1.687,1.687,0,0,1,212.248,0a1.639,1.639,0,0,1,.845.168l16.739,9.366a3.44,3.44,0,0,1,1.747,2.991V93.548a3.381,3.381,0,0,1-1.691,2.934l-28.123,16.249a3.364,3.364,0,0,1-3.381,0Zm83.805-.79-27.9-15.91a3.4,3.4,0,0,1-1.747-2.935V60.6a3.38,3.38,0,0,1,1.691-2.933l28.123-16.25a3.366,3.366,0,0,1,1.69-.452h0a3.34,3.34,0,0,1,1.691.451l27.954,16.25a3.385,3.385,0,0,1,1.691,2.934V68.44a3.391,3.391,0,0,1-1.691,2.935L296.842,81.19a1.691,1.691,0,0,1-2.536-1.466V71.711a1.687,1.687,0,0,0-.845-1.466l-8.791-5.078a1.685,1.685,0,0,0-1.691,0l-8.792,5.078a1.741,1.741,0,0,0-.9,1.467V81.868a1.825,1.825,0,0,0,.9,1.524l28.292,16.249a1.668,1.668,0,0,1,.845,1.467,1.712,1.712,0,0,1-.9,1.467L285.514,112a3.256,3.256,0,0,1-1.592.411A3.5,3.5,0,0,1,282.189,111.941ZM60.416,105.227,43.735,95.635A3.451,3.451,0,0,1,41.988,92.7V72.333A3.37,3.37,0,0,0,40.3,69.4l-7.1-4.118a3.389,3.389,0,0,0-3.381,0l-7.1,4.118a3.37,3.37,0,0,0-1.691,2.934V92.7a3.445,3.445,0,0,1-1.747,2.934L2.593,105.227a1.639,1.639,0,0,1-1.691,0,1.665,1.665,0,0,1-.845-1.466L0,60.146a3.372,3.372,0,0,1,1.69-2.934l28.124-16.25a3.17,3.17,0,0,1,1.521-.4h.338a3.151,3.151,0,0,1,1.521.4l28.123,16.25a3.355,3.355,0,0,1,1.69,2.934l-.055,43.614a1.694,1.694,0,0,1-.846,1.467,1.639,1.639,0,0,1-1.691,0Z"/>
    <path id="Shape-2" data-name="Shape" d="M29.783,72.067,1.689,55.647A3.42,3.42,0,0,1,0,52.681V19.841A3.509,3.509,0,0,1,1.689,16.82L29.783.456a3.354,3.354,0,0,1,3.378,0L61.254,16.82a3.508,3.508,0,0,1,1.689,3.021v32.84a3.422,3.422,0,0,1-1.689,2.966L33.16,72.067a3.324,3.324,0,0,1-3.378,0ZM199.133,43.1l-5.4-3.136a.668.668,0,0,1-.338-.571V33.126a.668.668,0,0,1,.338-.571l5.4-3.192a.676.676,0,0,1,.338-.058h0a.465.465,0,0,1,.282.056l5.4,3.193a.672.672,0,0,1,.338.57V39.4a.671.671,0,0,1-.338.57l-5.4,3.137a.6.6,0,0,1-.309.089A.61.61,0,0,1,199.133,43.1Z" transform="translate(84.615 40.659)" fill="#7f7f7f"/>
  </g>
</svg>
