<svg xmlns="http://www.w3.org/2000/svg" xmlns:xlink="http://www.w3.org/1999/xlink" width="59.98" height="42" viewBox="0 0 59.98 42">
  <defs>
    <clipPath id="clip-path">
      <path id="Path_3" data-name="Path 3" d="M6.76-27.622H12V-39.351l-2.62-2.63L2.639-42,0-39.351V-23.9l6.831,5.646v13.2H5.208V-17.99H0V-2.649L2.639,0H9.38L12-2.635V-21.788l-6.717-5.5v-9.736H6.76Z" fill="none"/>
    </clipPath>
    <clipPath id="clip-path-2">
      <path id="Path_2" data-name="Path 2" d="M-75,980H1845V-100H-75Z" fill="none"/>
    </clipPath>
    <clipPath id="clip-path-3">
      <path id="Path_6" data-name="Path 6" d="M21.76-27.631,27-28.937V-39.353l-2.62-2.628L17.639-42,15-39.353V-2.675L17.639,0,24.38-.027,27-2.675V-28.937l-5.24,1.306V-5.077H20.283V-37.029H21.76Z" fill="none"/>
    </clipPath>
    <clipPath id="clip-path-5">
      <path id="Path_9" data-name="Path 9" d="M54.749-31.35l5.231-2.462v-5.522l-2.615-2.647H48V-.013h9.364L59.98-2.666V-33.811L54.749-31.35V-5.068H53.274V-37.026h1.475Z" fill="none"/>
    </clipPath>
    <clipPath id="clip-path-7">
      <path id="Path_12" data-name="Path 12" d="M45-41.981,40-42V0h5V-41.981Z" fill="none"/>
    </clipPath>
    <clipPath id="clip-path-9">
      <path id="Path_15" data-name="Path 15" d="M29-42V0l9-.027V-5.06H34V-42Z" fill="none"/>
    </clipPath>
  </defs>
  <g id="Group_21" data-name="Group 21" transform="translate(0 42)">
    <g id="Group_2" data-name="Group 2" clip-path="url(#clip-path)">
      <g id="Group_1" data-name="Group 1" clip-path="url(#clip-path-2)">
        <path id="Path_1" data-name="Path 1" d="M-5-47H17V5H-5Z"/>
      </g>
    </g>
    <g id="Group_4" data-name="Group 4" clip-path="url(#clip-path-3)">
      <g id="Group_3" data-name="Group 3" clip-path="url(#clip-path-2)">
        <path id="Path_4" data-name="Path 4" d="M10-47H32V5H10Z"/>
      </g>
    </g>
    <g id="Group_6" data-name="Group 6" clip-path="url(#clip-path-5)">
      <g id="Group_5" data-name="Group 5" clip-path="url(#clip-path-2)">
        <path id="Path_7" data-name="Path 7" d="M43-46.981H64.98V4.987H43Z"/>
      </g>
    </g>
    <g id="Group_8" data-name="Group 8" clip-path="url(#clip-path-7)">
      <g id="Group_7" data-name="Group 7" clip-path="url(#clip-path-2)">
        <path id="Path_10" data-name="Path 10" d="M35-47H50V5H35Z"/>
      </g>
    </g>
    <g id="Group_10" data-name="Group 10" clip-path="url(#clip-path-9)">
      <g id="Group_9" data-name="Group 9" clip-path="url(#clip-path-2)">
        <path id="Path_13" data-name="Path 13" d="M24-47H43V5H24Z"/>
      </g>
    </g>
  </g>
</svg>
