<svg xmlns="http://www.w3.org/2000/svg" width="1276.583" height="75.667" viewBox="0 0 1276.583 75.667">
  <path id="platform" d="M2.5,0H29.917V-13.083H44.5c19.25,0,31.333-8.25,31.333-28.5S63.75-70,44.333-70H2.5ZM29.917-35.75V-47.333h12c3.667,0,6.25,1.917,6.25,5.75S45.583-35.75,41.75-35.75ZM85,0h62.75V-22.833H112.417V-70H85ZM214.583,0h28.25L218-70H179.667L154.833,0h28.25l2.333-7.583h26.917ZM191.5-27.667l5.083-16.75h4.583l5.083,16.75ZM312.083-70H235.75v22.75h24.5V0h27.333V-47.25h24.5Zm9.583,70h27.417V-23h36.833V-42.417H349.083V-47.25h38.25V-70H321.667ZM435.083,2.333C459.917,2.333,475.5-12.333,475.5-35c0-22.75-15.583-37.333-40.417-37.333-24.917,0-40.5,14.583-40.5,37.333C394.583-12.333,410.167,2.333,435.083,2.333Zm0-23.583c-7,0-13.25-4.5-13.25-13.75,0-9.333,6.25-13.75,13.25-13.75,6.917,0,13.25,4.417,13.25,13.75C448.333-25.75,442-21.25,435.083-21.25ZM560.75,0,548.917-22.417c5.25-4.167,9.083-10.667,9.083-19.75C558-62,546.417-70,526.583-70H484.25V0h27.417V-16.25H525.75L533.917,0ZM511.667-47.333H524.5c4.167,0,6,2.167,6,5.417s-1.833,5.417-6,5.417H511.667ZM569.667,0H595.75V-23.583h2.083L602.417,0h20L627-23.583h2.083V0h26.083V-70H620.833l-7.417,33.75h-2L604-70H569.667ZM692.25,0h27.417V-13.083H734.25c19.25,0,31.333-8.25,31.333-28.5S753.5-70,734.083-70H692.25Zm27.417-35.75V-47.333h12c3.667,0,6.25,1.917,6.25,5.75s-2.583,5.833-6.417,5.833ZM851.25,0,839.417-22.417c5.25-4.167,9.083-10.667,9.083-19.75C848.5-62,836.917-70,817.083-70H774.75V0h27.417V-16.25H816.25L824.417,0ZM802.167-47.333H815c4.167,0,6,2.167,6,5.417s-1.833,5.417-6,5.417H802.167ZM897.333,2.333c24.833,0,40.417-14.667,40.417-37.333,0-22.75-15.583-37.333-40.417-37.333-24.917,0-40.5,14.583-40.5,37.333C856.833-12.333,872.417,2.333,897.333,2.333Zm0-23.583c-7,0-13.25-4.5-13.25-13.75,0-9.333,6.25-13.75,13.25-13.75,6.917,0,13.25,4.417,13.25,13.75C910.583-25.75,904.25-21.25,897.333-21.25ZM983.667-70H946.5V0h37.167c29.417,0,39.167-14.833,39.167-35C1022.833-55.333,1013.083-70,983.667-70Zm.083,47.083H974v-24.25h9.75c5.917,0,11.583,2.417,11.583,12.167C995.333-25.417,989.667-22.917,983.75-22.917Zm86.167,25.25c25.75,0,37.917-10.333,37.917-34V-70H1080.5v37.917c0,7-2.917,11.5-10.583,11.5s-10.333-4.5-10.333-11.5V-70H1032v38.583C1032-8,1044.167,2.333,1069.917,2.333Zm86.667,0c18.417,0,36.917-8,38.5-33.917h-26c-1.25,7-5.667,10.333-12.5,10.333-7,0-12.75-5.083-12.75-13.75s5.75-13.75,12.75-13.75c6.833,0,11.25,3.25,12.5,10.083h26c-1.583-25.75-20.25-33.667-38.5-33.667-24.167,0-40,14.583-40,37.333C1116.583-12.333,1132.417,2.333,1156.583,2.333ZM1278.083-70H1201.75v22.75h24.5V0h27.333V-47.25h24.5Z" transform="translate(-2 72.833)" fill="rgba(255,255,255,0.5)" stroke="#000" stroke-width="1" opacity="0.25"/>
</svg>
