<svg xmlns="http://www.w3.org/2000/svg" width="789.458" height="75.669" viewBox="0 0 789.458 75.669">
  <path id="android" d="M59.75,0H88L63.167-70H24.833L0,0H28.25l2.333-7.583H57.5ZM36.667-27.667l5.083-16.75h4.583l5.083,16.75ZM95.5,0h26.667V-31.667h2.5L142.417,0H173V-70H146.333v31.667h-2.417L126.833-70H95.5ZM220.167-70H183V0h37.167c29.417,0,39.167-14.833,39.167-35C259.333-55.333,249.583-70,220.167-70Zm.083,47.083H210.5v-24.25h9.75c5.917,0,11.583,2.417,11.583,12.167C231.833-25.417,226.167-22.917,220.25-22.917ZM345,0,333.167-22.417c5.25-4.167,9.083-10.667,9.083-19.75C342.25-62,330.667-70,310.833-70H268.5V0h27.417V-16.25H310L318.167,0ZM295.917-47.333H308.75c4.167,0,6,2.167,6,5.417s-1.833,5.417-6,5.417H295.917ZM391.083,2.333C415.917,2.333,431.5-12.333,431.5-35c0-22.75-15.583-37.333-40.417-37.333-24.917,0-40.5,14.583-40.5,37.333C350.583-12.333,366.167,2.333,391.083,2.333Zm0-23.583c-7,0-13.25-4.5-13.25-13.75,0-9.333,6.25-13.75,13.25-13.75,6.917,0,13.25,4.417,13.25,13.75C404.333-25.75,398-21.25,391.083-21.25ZM440.25,0h27.417V-70H440.25Zm74.583-70H477.667V0h37.167C544.25,0,554-14.833,554-35,554-55.333,544.25-70,514.833-70Zm.083,47.083h-9.75v-24.25h9.75c5.917,0,11.583,2.417,11.583,12.167C526.5-25.417,520.833-22.917,514.917-22.917ZM590.25,0h27.417V-70H590.25Zm76.667,2.333c24.833,0,40.417-14.667,40.417-37.333,0-22.75-15.583-37.333-40.417-37.333-24.917,0-40.5,14.583-40.5,37.333C626.417-12.333,642,2.333,666.917,2.333Zm0-23.583c-7,0-13.25-4.5-13.25-13.75,0-9.333,6.25-13.75,13.25-13.75,6.917,0,13.25,4.417,13.25,13.75C680.167-25.75,673.833-21.25,666.917-21.25Zm83.75,23.583c25.417.167,37.583-7.25,37.583-23.417,0-20.75-20.917-19.917-35.167-22.25L745.75-44.5c-4.083-.5-3.917-2.75-3.917-3.25,0-1.667,1.917-3.417,8.417-3.417,7.667,0,10.917,2.083,11.583,5.583H786.25c.75-21.75-14.083-26.75-35.417-26.75-24,0-35.333,8.917-35.333,23.167,0,19.667,17.75,20,31,22l9.25,1.417c5.833.667,5.25,3,5.25,3.5,0,1.75-2.833,3.5-10.333,3.333-9-.083-12.083-2.167-12.083-5.667H714C713.083-5.25,724.583,2.25,750.667,2.333Z" transform="translate(0.708 72.833)" fill="rgba(255,255,255,0.5)" stroke="#000" stroke-width="1" opacity="0.25"/>
</svg>
