<svg xmlns="http://www.w3.org/2000/svg" xmlns:xlink="http://www.w3.org/1999/xlink" width="550" height="920" viewBox="0 0 550 920">
  <defs>
    <filter id="Combined_Shape" x="0" y="0" width="550" height="920" filterUnits="userSpaceOnUse">
      <feOffset dy="3" input="SourceAlpha"/>
      <feGaussianBlur stdDeviation="30" result="blur"/>
      <feFlood flood-opacity="0.161"/>
      <feComposite operator="in" in2="blur"/>
      <feComposite in="SourceGraphic"/>
    </filter>
    <clipPath id="clip-path">
      <path id="Screen" d="M76.531,0a4,4,0,0,1,3.96,3.434h0C82.8,19.569,100.587,35,116.886,35H237.322c8.943,0,18.913-8.647,20.178-17.5l2.009-14.066A4,4,0,0,1,263.469,0H300a40,40,0,0,1,40,40V670a40,40,0,0,1-40,40H40A40,40,0,0,1,0,670V40A40,40,0,0,1,40,0Z" fill="#f8f8f8"/>
    </clipPath>
  </defs>
  <g id="Group_22" data-name="Group 22" transform="translate(-1019 -245)">
    <g id="iPhone_Front" data-name="iPhone Front" transform="translate(1104 332)">
      <g id="Base" transform="translate(5)">
        <g transform="matrix(1, 0, 0, 1, -90, -87)" filter="url(#Combined_Shape)">
          <path id="Combined_Shape-2" data-name="Combined Shape" d="M320,740H50A49.958,49.958,0,0,1,0,690V50A49.959,49.959,0,0,1,50,0H320a49.959,49.959,0,0,1,50,50V690a49.958,49.958,0,0,1-50,50ZM50,6A43.963,43.963,0,0,0,6,50V690a43.963,43.963,0,0,0,44,44H320a43.963,43.963,0,0,0,44-44V50A43.963,43.963,0,0,0,320,6Z" transform="translate(90 87)" fill="#fff"/>
        </g>
      </g>
      <g id="Elements" transform="translate(0 22)">
        <path id="Elements-2" data-name="Elements" d="M2,0H4A0,0,0,0,1,4,0V25a0,0,0,0,1,0,0H2a2,2,0,0,1-2-2V2A2,2,0,0,1,2,0Z" transform="translate(0 68)" fill="#fff"/>
        <path id="Elements-3" data-name="Elements" d="M2,0H4A0,0,0,0,1,4,0V46a0,0,0,0,1,0,0H2a2,2,0,0,1-2-2V2A2,2,0,0,1,2,0Z" transform="translate(0 118)" fill="#fff"/>
        <path id="Elements-4" data-name="Elements" d="M2,0H4A0,0,0,0,1,4,0V46a0,0,0,0,1,0,0H2a2,2,0,0,1-2-2V2A2,2,0,0,1,2,0Z" transform="translate(0 178)" fill="#fff"/>
        <path id="Elements-5" data-name="Elements" d="M0,0H2A2,2,0,0,1,4,2V74a2,2,0,0,1-2,2H0a0,0,0,0,1,0,0V0A0,0,0,0,1,0,0Z" transform="translate(376 134)" fill="#fff"/>
        <g id="TOP" transform="translate(168)">
          <g id="Camear" transform="translate(59)">
            <circle id="Camera" cx="8" cy="8" r="8" fill="#e3e3e3"/>
            <circle id="Camera-2" data-name="Camera" cx="5" cy="5" r="5" transform="translate(3 3)" fill="#fff"/>
          </g>
          <g id="Loudspeaker" transform="translate(0 3)">
            <rect id="Loudspeaker-2" data-name="Loudspeaker" width="44" height="10" rx="5" fill="#e3e3e3"/>
            <rect id="Loudspeaker-3" data-name="Loudspeaker" width="40" height="6" rx="3" transform="translate(2 2)" fill="#fff"/>
          </g>
        </g>
      </g>
      <g id="Screen-2" data-name="Screen" transform="translate(20 15)">
        <path id="Screen-3" data-name="Screen" d="M76.531,0a4,4,0,0,1,3.96,3.434h0C82.8,19.569,100.587,35,116.886,35H237.322c8.943,0,18.913-8.647,20.178-17.5l2.009-14.066A4,4,0,0,1,263.469,0H300a40,40,0,0,1,40,40V670a40,40,0,0,1-40,40H40A40,40,0,0,1,0,670V40A40,40,0,0,1,40,0Z" fill="#f8f8f8"/>
        <g id="Screen-4" data-name="Screen" clip-path="url(#clip-path)">
          <path id="Lighten" d="M300,0a40,40,0,0,1,40,40V710L0,0Z" fill="#fff" opacity="0.255" style="mix-blend-mode: overlay;isolation: isolate"/>
        </g>
      </g>
    </g>
  </g>
</svg>
