<svg xmlns="http://www.w3.org/2000/svg" width="40" height="40" viewBox="0 0 40 40">
  <path id="Path_3" data-name="Path 3" d="M37.115-40H2.885A2.885,2.885,0,0,0,0-37.115v34.23A2.885,2.885,0,0,0,2.885,0h34.23A2.885,2.885,0,0,0,40-2.885v-34.23A2.885,2.885,0,0,0,37.115-40ZM14.188-9.766H9.317V-24.42h4.871ZM11.753-26.421h-.032A2.521,2.521,0,0,1,9.03-28.952a2.542,2.542,0,0,1,2.756-2.532,2.531,2.531,0,0,1,2.723,2.532A2.541,2.541,0,0,1,11.753-26.421Zm20,16.655h-4.87v-7.84c0-1.97-.705-3.314-2.468-3.314a2.666,2.666,0,0,0-2.5,1.781,3.336,3.336,0,0,0-.16,1.189v8.184H16.884s.064-13.279,0-14.654h4.871v2.075a4.836,4.836,0,0,1,4.39-2.419c3.2,0,5.608,2.094,5.608,6.6Z" transform="translate(0 40)"/>
</svg>
