<svg xmlns="http://www.w3.org/2000/svg" width="2487.917" height="75.667" viewBox="0 0 2487.917 75.667">
  <g id="Group_29" data-name="Group 29" transform="translate(-487 -35.167)">
    <path id="minimum_viable_produ" data-name="minimum viable produ" d="M2.5,0H28.583V-23.583h2.083L35.25,0h20l4.583-23.583h2.083V0H88V-70H53.667L46.25-36.25h-2L36.833-70H2.5ZM98,0h27.417V-70H98Zm37.417,0h26.667V-31.667h2.5L182.333,0h30.583V-70H186.25v31.667h-2.417L166.75-70H135.417Zm87.5,0h27.417V-70H222.917Zm37.417,0h26.083V-23.583H288.5L293.083,0h20l4.583-23.583h2.083V0h26.083V-70H311.5l-7.417,33.75h-2L294.667-70H260.333ZM393.75,2.333c25.75,0,37.917-10.333,37.917-34V-70H404.333v37.917c0,7-2.917,11.5-10.583,11.5s-10.333-4.5-10.333-11.5V-70H355.833v38.583C355.833-8,368,2.333,393.75,2.333ZM441.667,0H467.75V-23.583h2.083L474.417,0h20L499-23.583h2.083V0h26.083V-70H492.833l-7.417,33.75h-2L476-70H441.667ZM586.583,0h38.333L649.75-70H621.5L607.167-25.667h-2.75L590-70H561.75ZM657.25,0h27.417V-70H657.25Zm94.667,0h28.25L755.333-70H717L692.167,0h28.25l2.333-7.583h26.917ZM728.833-27.667l5.083-16.75H738.5l5.083,16.75Zm124.583-8v-1.5C857.667-39.833,862-42.75,862-51c0-9-5.25-19-27.167-19H787.667V0H833c22.75,0,30.583-8.75,30.583-19.75C863.583-27.5,859.667-32,853.417-35.667ZM831.667-49.25c3.917,0,4.167,2.583,4.167,3.667,0,.75-.25,3.5-4.167,3.5H815.083V-49.25Zm.25,28.417H815.083v-7.25h16.833c3.833,0,4,2.917,4,3.583C835.917-23.917,835.75-20.833,831.917-20.833ZM872.75,0H935.5V-22.833H900.167V-70H872.75Zm73.167,0h65.833V-21.75H973.333v-4.583h36.917v-17.25H973.333V-48.25h38.417V-70H945.917Zm102.917,0h27.417V-13.083h14.583c19.25,0,31.333-8.25,31.333-28.5S1110.083-70,1090.667-70h-41.833Zm27.417-35.75V-47.333h12c3.667,0,6.25,1.917,6.25,5.75s-2.583,5.833-6.417,5.833ZM1207.833,0,1196-22.417c5.25-4.167,9.083-10.667,9.083-19.75C1205.083-62,1193.5-70,1173.667-70h-42.333V0h27.417V-16.25h14.083L1181,0ZM1158.75-47.333h12.833c4.167,0,6,2.167,6,5.417s-1.833,5.417-6,5.417H1158.75Zm95.167,49.667c24.833,0,40.417-14.667,40.417-37.333,0-22.75-15.583-37.333-40.417-37.333-24.917,0-40.5,14.583-40.5,37.333C1213.417-12.333,1229,2.333,1253.917,2.333Zm0-23.583c-7,0-13.25-4.5-13.25-13.75,0-9.333,6.25-13.75,13.25-13.75,6.917,0,13.25,4.417,13.25,13.75C1267.167-25.75,1260.833-21.25,1253.917-21.25ZM1340.25-70h-37.167V0h37.167c29.417,0,39.167-14.833,39.167-35C1379.417-55.333,1369.667-70,1340.25-70Zm.083,47.083h-9.75v-24.25h9.75c5.917,0,11.583,2.417,11.583,12.167C1351.917-25.417,1346.25-22.917,1340.333-22.917ZM1426.5,2.333c25.75,0,37.917-10.333,37.917-34V-70h-27.333v37.917c0,7-2.917,11.5-10.583,11.5s-10.333-4.5-10.333-11.5V-70h-27.583v38.583C1388.583-8,1400.75,2.333,1426.5,2.333Zm86.667,0c18.417,0,36.917-8,38.5-33.917h-26c-1.25,7-5.667,10.333-12.5,10.333-7,0-12.75-5.083-12.75-13.75s5.75-13.75,12.75-13.75c6.833,0,11.25,3.25,12.5,10.083h26c-1.583-25.75-20.25-33.667-38.5-33.667-24.167,0-40,14.583-40,37.333C1473.167-12.333,1489,2.333,1513.167,2.333ZM1634.667-70h-76.333v22.75h24.5V0h27.333V-47.25h24.5Z" transform="translate(485 108)" fill="rgba(255,255,255,0.5)" stroke="#000" stroke-width="1" opacity="0.25"/>
    <path id="web_APP_Copy" data-name="web APP Copy" d="M13.667,0h37L54-26.667h2.25L59.583,0h37L108.75-70H80.917L75.833-29.333H73.5L65.75-70H44.5L36.75-29.333H34.417L29.333-70H1.5ZM117.75,0h65.833V-21.75H145.167v-4.583h36.917v-17.25H145.167V-48.25h38.417V-70H117.75ZM259.333-35.667v-1.5c4.25-2.667,8.583-5.583,8.583-13.833,0-9-5.25-19-27.167-19H193.583V0h45.333C261.667,0,269.5-8.75,269.5-19.75,269.5-27.5,265.583-32,259.333-35.667ZM237.583-49.25c3.917,0,4.167,2.583,4.167,3.667,0,.75-.25,3.5-4.167,3.5H221V-49.25Zm.25,28.417H221v-7.25h16.833c3.833,0,4,2.917,4,3.583C241.833-23.917,241.667-20.833,237.833-20.833ZM363,0h28.25L366.417-70H328.083L303.25,0H331.5l2.333-7.583H360.75ZM339.917-27.667,345-44.417h4.583l5.083,16.75ZM398.75,0h27.417V-13.083H440.75c19.25,0,31.333-8.25,31.333-28.5S460-70,440.583-70H398.75Zm27.417-35.75V-47.333h12c3.667,0,6.25,1.917,6.25,5.75S441.833-35.75,438-35.75ZM481.25,0h27.417V-13.083H523.25c19.25,0,31.333-8.25,31.333-28.5S542.5-70,523.083-70H481.25Zm27.417-35.75V-47.333h12c3.667,0,6.25,1.917,6.25,5.75s-2.583,5.833-6.417,5.833Z" transform="translate(2167 108)" fill="rgba(255,255,255,0.5)" stroke="#000" stroke-width="1" opacity="0.25"/>
    <path id="API" d="M59.75,0H88L63.167-70H24.833L0,0H28.25l2.333-7.583H57.5ZM36.667-27.667l5.083-16.75h4.583l5.083,16.75ZM95.5,0h27.417V-13.083H137.5c19.25,0,31.333-8.25,31.333-28.5S156.75-70,137.333-70H95.5Zm27.417-35.75V-47.333h12c3.667,0,6.25,1.917,6.25,5.75s-2.583,5.833-6.417,5.833ZM178,0h27.417V-70H178Z" transform="translate(2769 108)" fill="rgba(255,255,255,0.5)" stroke="#000" stroke-width="1" opacity="0.25"/>
  </g>
</svg>
