<svg xmlns="http://www.w3.org/2000/svg" width="1605.75" height="75.667" viewBox="0 0 1605.75 75.667">
  <path id="marketplace" d="M-1607.25,0h26.083V-23.583h2.083L-1574.5,0h20l4.583-23.583h2.083V0h26.083V-70h-34.333l-7.417,33.75h-2L-1572.917-70h-34.333Zm152.75,0h28.25l-24.833-70h-38.333L-1514.25,0H-1486l2.333-7.583h26.917Zm-23.083-27.667,5.083-16.75h4.583l5.083,16.75ZM-1342.25,0l-11.833-22.417c5.25-4.167,9.083-10.667,9.083-19.75C-1345-62-1356.583-70-1376.417-70h-42.333V0h27.417V-16.25h14.083L-1369.083,0Zm-49.083-47.333h12.833c4.167,0,6,2.167,6,5.417s-1.833,5.417-6,5.417h-12.833ZM-1252.75,0l-28.5-38.833,28-31.167h-30.25l-20.833,23.833H-1306V-70h-27.333V0H-1306V-13.75l7.917-8.583h1.5L-1280.5,0Zm6.417,0h65.833V-21.75h-38.417v-4.583H-1182v-17.25h-36.917V-48.25h38.417V-70h-65.833Zm151.75-70h-76.333v22.75h24.5V0h27.333V-47.25h24.5ZM-1085,0h27.417V-13.083H-1043c19.25,0,31.333-8.25,31.333-28.5S-1023.75-70-1043.167-70H-1085Zm27.417-35.75V-47.333h12c3.667,0,6.25,1.917,6.25,5.75s-2.583,5.833-6.417,5.833ZM-1002.5,0h62.75V-22.833h-35.333V-70H-1002.5Zm129.583,0h28.25L-869.5-70h-38.333L-932.667,0h28.25l2.333-7.583h26.917ZM-896-27.667l5.083-16.75h4.583l5.083,16.75Zm90.667,30c18.417,0,36.917-8,38.5-33.917h-26c-1.25,7-5.667,10.333-12.5,10.333-7,0-12.75-5.083-12.75-13.75s5.75-13.75,12.75-13.75c6.833,0,11.25,3.25,12.5,10.083h26c-1.583-25.75-20.25-33.667-38.5-33.667-24.167,0-40,14.583-40,37.333C-845.333-12.333-829.5,2.333-805.333,2.333ZM-758.083,0h65.833V-21.75h-38.417v-4.583h36.917v-17.25h-36.917V-48.25h38.417V-70h-65.833Zm102.917,0h27.417V-13.083h14.583c19.25,0,31.333-8.25,31.333-28.5S-593.917-70-613.333-70h-41.833Zm27.417-35.75V-47.333h12c3.667,0,6.25,1.917,6.25,5.75s-2.583,5.833-6.417,5.833ZM-572.667,0h62.75V-22.833H-545.25V-70h-27.417Zm129.583,0h28.25l-24.833-70H-478L-502.833,0h28.25l2.333-7.583h26.917Zm-23.083-27.667,5.083-16.75h4.583l5.083,16.75ZM-345.583-70h-76.333v22.75h24.5V0h27.333V-47.25h24.5ZM-336,0h27.417V-23h36.833V-42.417h-36.833V-47.25h38.25V-70H-336Zm113.417,2.333c24.833,0,40.417-14.667,40.417-37.333,0-22.75-15.583-37.333-40.417-37.333-24.917,0-40.5,14.583-40.5,37.333C-263.083-12.333-247.5,2.333-222.583,2.333Zm0-23.583c-7,0-13.25-4.5-13.25-13.75,0-9.333,6.25-13.75,13.25-13.75,6.917,0,13.25,4.417,13.25,13.75C-209.333-25.75-215.667-21.25-222.583-21.25ZM-96.917,0-108.75-22.417c5.25-4.167,9.083-10.667,9.083-19.75C-99.667-62-111.25-70-131.083-70h-42.333V0H-146V-16.25h14.083L-123.75,0ZM-146-47.333h12.833c4.167,0,6,2.167,6,5.417s-1.833,5.417-6,5.417H-146ZM-88,0h26.083V-23.583h2.083L-55.25,0h20l4.583-23.583h2.083V0H-2.5V-70H-36.833L-44.25-36.25h-2L-53.667-70H-88Z" transform="translate(1607.75 72.833)" fill="none" stroke="#000" stroke-width="1" opacity="0.25"/>
</svg>
