<svg xmlns="http://www.w3.org/2000/svg" xmlns:xlink="http://www.w3.org/1999/xlink" width="227.964" height="201.197" viewBox="0 0 227.964 201.197">
  <defs>
    <clipPath id="clip-path">
      <path id="Path_18" data-name="Path 18" d="M93.015-39.579a25.32,25.32,0,0,0,25.353-25.287A25.32,25.32,0,0,0,93.015-90.153,25.32,25.32,0,0,0,67.663-64.866,25.32,25.32,0,0,0,93.015-39.579Zm0-9.982a15.325,15.325,0,0,1-15.344-15.3,15.325,15.325,0,0,1,15.344-15.3,15.325,15.325,0,0,1,15.344,15.3A15.325,15.325,0,0,1,93.015-49.561Z" transform="translate(-67.663 90.153)" fill="none"/>
    </clipPath>
    <clipPath id="clip-path-2">
      <path id="Path_17" data-name="Path 17" d="M-124,12419.587H546.261V-7787H-124Z" transform="translate(124 7787)" fill="none"/>
    </clipPath>
    <clipPath id="clip-path-3">
      <path id="Path_21" data-name="Path 21" d="M126.593-102.9c27.376,0,53.473,3.843,73.563,10.709C224.725-83.8,240.571-70.68,240.571-57.2c0,14.064-16.937,27.9-43.025,36.475-19.064,6.267-44.152,9.627-70.96,9.627-28.118,0-53.5-3.3-72.408-9.708-25.084-8.5-41.572-22.508-41.572-36.383,0-13.43,15.346-26.458,39.429-34.789C72.156-98.954,98.869-102.9,126.593-102.9Zm0,8.984c-26.771,0-52.5,3.8-71.6,10.423-20.845,7.211-33.375,17.848-33.375,26.3,0,8.9,13.635,20.48,35.463,27.876,17.862,6.057,42.3,9.23,69.509,9.23,25.913,0,50.07-3.235,68.14-9.175C217.5-36.751,231.563-48.235,231.563-57.2c0-8.427-13.026-19.212-34.326-26.488C178.144-90.218,153.025-93.918,126.593-93.918Z" transform="translate(-12.607 102.902)" fill="none"/>
    </clipPath>
    <clipPath id="clip-path-5">
      <path id="Path_24" data-name="Path 24" d="M115.751-116.911c19.6-16.914,38.946-23.97,50.7-17.264,12.262,7.027,15.883,28.51,10.337,55.22-4.053,19.513-13.652,42.749-27.05,65.815-14.05,24.172-29.6,44.335-44.65,57.386-19.952,17.307-40.415,24.477-52.5,17.56C40.871,55.1,37.157,35.377,41.922,10.516,45.9-10.271,55.8-35.206,69.651-59.019,83.324-82.545,99.713-103.054,115.751-116.911Zm-38.307,62.4C64.079-31.528,54.546-7.527,50.769,12.2c-4.121,21.5-1.093,37.579,6.3,41.812,7.788,4.458,24.732-1.479,42.1-16.547,14.207-12.321,29.177-31.729,42.767-55.111,12.946-22.287,22.184-44.651,26.023-63.133,4.84-23.308,1.839-41.114-6-45.6-7.393-4.219-23.321,1.59-40.321,16.262C106.411-96.955,90.64-77.22,77.444-54.513Z" transform="translate(-39.903 136.686)" fill="none"/>
    </clipPath>
    <clipPath id="clip-path-7">
      <path id="Path_27" data-name="Path 27" d="M69.666-13.164C55.947-36.692,46.221-61.028,42.143-81.719c-4.989-25.3-1.479-45.5,10.26-52.254,12.24-7.02,32.792.589,53.325,18.683,15.016,13.229,30.518,33.088,43.962,56.118C163.785-34.993,173.617-11.564,177.5,7.9c5.149,25.816,1.188,47-10.905,53.948-11.687,6.714-30.731.065-50.057-16.437C100.378,31.6,83.552,10.634,69.666-13.164ZM122.4,38.583c16.735,14.29,32.305,19.725,39.7,15.476,7.773-4.464,11.044-21.959,6.566-44.409C165-8.717,155.538-31.267,141.9-54.653c-12.99-22.252-27.912-41.369-42.14-53.9-17.94-15.808-35.019-22.132-42.867-17.63-7.358,4.231-10.239,20.815-5.917,42.735,3.873,19.65,13.23,43.063,26.47,65.77C90.855,5.291,107.055,25.477,122.4,38.583Z" transform="translate(-39.94 136.56)" fill="none"/>
    </clipPath>
  </defs>
  <g id="react" transform="translate(-12.607 136.686)">
    <g id="Group_12" data-name="Group 12" transform="translate(101.742 -61.349)" clip-path="url(#clip-path)">
      <g id="Group_11" data-name="Group 11" transform="translate(-310.299 -12461.102)" clip-path="url(#clip-path-2)">
        <path id="Path_16" data-name="Path 16" d="M62.663-95.153h66.9v66.764h-66.9Z" transform="translate(239.542 12548.159)"/>
      </g>
    </g>
    <g id="Group_14" data-name="Group 14" transform="translate(12.607 -81.99)" clip-path="url(#clip-path-3)">
      <g id="Group_13" data-name="Group 13" transform="translate(-221.165 -12440.461)" clip-path="url(#clip-path-2)">
        <path id="Path_19" data-name="Path 19" d="M7.607-107.9H251.76V.087H7.607Z" transform="translate(205.463 12540.268)"/>
      </g>
    </g>
    <g id="Group_16" data-name="Group 16" transform="translate(56.798 -136.686)" clip-path="url(#clip-path-5)">
      <g id="Group_15" data-name="Group 15" transform="translate(-265.356 -12385.766)" clip-path="url(#clip-path-2)">
        <path id="Path_22" data-name="Path 22" d="M34.9-141.686h155.6V75.6H34.9Z" transform="translate(222.359 12519.356)"/>
      </g>
    </g>
    <g id="Group_18" data-name="Group 18" transform="translate(56.858 -136.481)" clip-path="url(#clip-path-7)">
      <g id="Group_17" data-name="Group 17" transform="translate(-265.416 -12385.97)" clip-path="url(#clip-path-2)">
        <path id="Path_25" data-name="Path 25" d="M34.94-141.559H190.893V75.622H34.94Z" transform="translate(222.382 12519.435)"/>
      </g>
    </g>
  </g>
</svg>
